<svg viewBox="0 0 100 74" xmlns="http://www.w3.org/2000/svg" role="img" aria-label="Docker">
  <path fill="#FFFFFF" d="M98.3 30.4c-2.7-1.8-8.9-2.5-13.7-1.6-.6-4.5-3.1-8.4-7.7-11.9l-2.6-1.7-1.7 2.6c-2.2 3.3-2.8 8.8-.4 12.9-1.1.6-3.2 1.4-6 1.3H1.2l-.2 1c-.6 3.6-.6 14.9 6.7 23.6C13.2 63.9 21.5 68 32 68c22.8 0 39.6-10.5 47.5-29.6 3.1.1 9.8.1 13.2-6.4.2-.4.8-1.4 1.6-3.6l.3-.9-2.3-1.1zM52.5 25.6h-8.9v8.9h8.9v-8.9zm-11.9 0h-8.9v8.9h8.9v-8.9zm-11.9 0H19.8v8.9h8.9v-8.9zm-11.9 0H7.9v8.9h8.9v-8.9zm35.7-11.9h-8.9v8.9h8.9v-8.9zm-11.9 0h-8.9v8.9h8.9v-8.9zm-11.9 0H19.8v8.9h8.9v-8.9zm23.8-11.9h-8.9v8.9h8.9V1.9z"/>
</svg>
